<svg xmlns="http://www.w3.org/2000/svg" viewBox="0 0 920 220" role="img" aria-label="CBC Exam Practice logo">
  <defs>
    <linearGradient id="cbcLightBg" x1="28" y1="28" x2="192" y2="192" gradientUnits="userSpaceOnUse">
      <stop offset="0" stop-color="#22c55e"/>
      <stop offset="1" stop-color="#0f766e"/>
    </linearGradient>
    <linearGradient id="cbcLightAccent" x1="230" y1="120" x2="760" y2="180" gradientUnits="userSpaceOnUse">
      <stop offset="0" stop-color="#16a34a"/>
      <stop offset="1" stop-color="#0d9488"/>
    </linearGradient>
  </defs>
  <rect width="920" height="220" rx="32" fill="transparent"/>
  <rect x="28" y="28" width="164" height="164" rx="40" fill="url(#cbcLightBg)"/>
  <path d="M66 72h42c17 0 28 10 28 27v65H94c-17 0-28-10-28-27V72Z" fill="#ffffff"/>
  <path d="M154 72h-42c-17 0-28 10-28 27v65h42c17 0 28-10 28-27V72Z" fill="#dcfce7"/>
  <path d="M110 89v66" fill="none" stroke="#0f766e" stroke-width="8" stroke-linecap="round"/>
  <path d="m101 122 8 8 18-22" fill="none" stroke="#16a34a" stroke-width="8" stroke-linecap="round" stroke-linejoin="round"/>
  <g font-family="Inter, ui-sans-serif, system-ui, -apple-system, Segoe UI, sans-serif" font-weight="900">
    <text x="230" y="98" font-size="58" fill="#0f172a">CBC Exam</text>
    <text x="230" y="158" font-size="58" fill="url(#cbcLightAccent)">Practice</text>
  </g>
</svg>
